<svg 
 xmlns="http://www.w3.org/2000/svg"
 xmlns:xlink="http://www.w3.org/1999/xlink"
 width="58.5px" height="66.5px">
<path fill-rule="evenodd"  stroke="rgb(254, 96, 129)" stroke-width="1px" stroke-linecap="butt" stroke-linejoin="miter" fill="rgb(254, 96, 129)"
 d="M28.663,0.498 C19.058,0.498 11.250,8.335 11.250,17.967 C11.250,24.222 14.976,29.827 18.927,35.764 C20.249,37.750 21.580,39.761 22.801,41.828 C9.919,42.955 0.500,47.683 0.500,53.535 C0.500,60.250 12.895,65.510 28.714,65.510 C44.534,65.510 56.928,60.250 56.928,53.535 C56.928,47.671 47.463,42.929 34.526,41.819 C35.742,39.757 37.078,37.750 38.396,35.768 C42.347,29.831 46.077,24.222 46.077,17.967 C46.077,8.335 38.265,0.498 28.663,0.498 ZM28.663,2.675 C37.065,2.675 43.907,9.534 43.907,17.967 C43.907,23.563 40.354,28.904 36.590,34.556 C33.517,39.178 30.359,43.916 28.659,49.304 C26.959,43.916 23.806,39.174 20.732,34.552 C16.972,28.900 13.420,23.563 13.420,17.967 C13.420,9.538 20.258,2.675 28.663,2.675 ZM27.218,8.998 C26.421,9.134 25.645,9.385 24.912,9.738 C20.601,11.831 18.791,17.044 20.872,21.369 C22.368,24.477 25.476,26.289 28.702,26.289 C29.969,26.289 31.253,26.013 32.466,25.422 C36.064,23.678 38.010,19.719 37.188,15.798 C37.065,15.211 36.493,14.833 35.903,14.956 C35.318,15.079 34.941,15.658 35.064,16.245 C35.679,19.183 34.225,22.156 31.525,23.461 C28.290,25.030 24.386,23.670 22.826,20.425 C21.266,17.180 22.623,13.268 25.857,11.703 C26.408,11.435 26.989,11.244 27.587,11.142 C28.176,11.040 28.574,10.478 28.473,9.887 C28.371,9.292 27.811,8.892 27.218,8.998 ZM31.516,9.428 C31.096,9.436 30.698,9.692 30.529,10.108 C30.308,10.665 30.575,11.303 31.130,11.524 C31.923,11.847 32.631,12.311 33.241,12.906 C33.449,13.111 33.720,13.217 33.996,13.217 C34.280,13.217 34.560,13.102 34.772,12.885 C35.191,12.456 35.183,11.767 34.750,11.346 C33.941,10.550 32.996,9.934 31.940,9.509 C31.805,9.453 31.660,9.424 31.516,9.428 ZM28.714,15.432 C27.515,15.432 26.544,16.406 26.544,17.610 C26.544,18.813 27.515,19.787 28.714,19.787 C29.914,19.787 30.885,18.813 30.885,17.610 C30.885,16.406 29.914,15.432 28.714,15.432 ZM33.343,43.911 C46.319,44.800 54.758,49.291 54.758,53.535 C54.758,58.268 44.292,63.333 28.714,63.333 C13.136,63.333 2.670,58.268 2.670,53.535 C2.670,49.304 11.068,44.826 23.979,43.924 C25.739,47.220 27.112,50.681 27.582,54.453 C27.650,54.998 28.112,55.406 28.659,55.406 C29.206,55.406 29.668,54.998 29.736,54.453 C30.211,50.681 31.580,47.211 33.343,43.911 ZM15.726,57.571 C15.306,57.639 14.950,57.949 14.840,58.383 C14.692,58.970 15.048,59.561 15.629,59.705 C19.393,60.654 23.916,61.155 28.714,61.155 C30.202,61.155 31.690,61.104 33.135,61.007 C33.733,60.968 34.183,60.449 34.140,59.846 C34.102,59.250 33.597,58.795 32.987,58.838 C31.592,58.931 30.155,58.978 28.714,58.978 C24.157,58.978 19.698,58.485 16.154,57.596 C16.010,57.558 15.866,57.549 15.726,57.571 ZM41.702,57.575 C41.567,57.554 41.418,57.558 41.274,57.596 C40.219,57.860 39.083,58.089 37.887,58.281 C37.294,58.379 36.891,58.936 36.989,59.531 C37.073,60.067 37.535,60.445 38.057,60.445 C38.116,60.445 38.176,60.441 38.231,60.432 C39.485,60.228 40.689,59.986 41.804,59.705 C42.385,59.561 42.737,58.970 42.588,58.383 C42.482,57.949 42.122,57.639 41.702,57.575 Z"/>
</svg>