<svg 
 xmlns="http://www.w3.org/2000/svg"
 xmlns:xlink="http://www.w3.org/1999/xlink"
 width="59.5px" height="42.5px">
<path fill-rule="evenodd"  stroke="rgb(254, 96, 129)" stroke-width="1px" stroke-linecap="butt" stroke-linejoin="miter" fill="rgb(254, 96, 129)"
 d="M4.214,1.221 C2.641,1.221 1.357,2.505 1.357,4.079 L1.357,38.377 C1.357,39.951 2.641,41.235 4.214,41.235 L55.643,41.235 C57.216,41.235 58.500,39.951 58.500,38.377 L58.500,4.079 C58.500,2.505 57.216,1.221 55.643,1.221 L4.214,1.221 ZM4.214,3.127 L55.643,3.127 C56.167,3.127 56.595,3.555 56.595,4.079 L56.595,4.545 L31.045,23.056 C30.379,23.539 29.478,23.539 28.812,23.056 L3.262,4.545 L3.262,4.079 C3.262,3.555 3.690,3.127 4.214,3.127 ZM3.262,6.897 L27.696,24.596 C28.362,25.080 29.147,25.322 29.928,25.322 C30.710,25.322 31.495,25.080 32.161,24.596 L56.595,6.897 L56.595,30.964 L40.851,21.366 C40.401,21.091 39.813,21.236 39.542,21.686 C39.270,22.136 39.411,22.720 39.858,22.996 L56.595,33.197 L56.595,38.377 C56.595,38.902 56.167,39.330 55.643,39.330 L4.214,39.330 C3.690,39.330 3.262,38.902 3.262,38.377 L3.262,33.197 L19.999,22.996 C20.446,22.720 20.591,22.132 20.315,21.686 C20.040,21.236 19.456,21.091 19.006,21.366 L3.262,30.964 L3.262,6.897 ZM6.119,33.613 C5.594,33.613 5.167,34.038 5.167,34.566 L5.167,36.472 C5.167,37.000 5.594,37.424 6.119,37.424 C6.644,37.424 7.071,37.000 7.071,36.472 L7.071,34.566 C7.071,34.038 6.644,33.613 6.119,33.613 ZM10.881,33.613 C10.356,33.613 9.928,34.038 9.928,34.566 L9.928,36.472 C9.928,37.000 10.356,37.424 10.881,37.424 C11.405,37.424 11.833,37.000 11.833,36.472 L11.833,34.566 C11.833,34.038 11.405,33.613 10.881,33.613 ZM15.643,33.613 C15.118,33.613 14.690,34.038 14.690,34.566 L14.690,36.472 C14.690,37.000 15.118,37.424 15.643,37.424 C16.167,37.424 16.595,37.000 16.595,36.472 L16.595,34.566 C16.595,34.038 16.167,33.613 15.643,33.613 ZM20.405,33.613 C19.880,33.613 19.452,34.038 19.452,34.566 L19.452,36.472 C19.452,37.000 19.880,37.424 20.405,37.424 C20.929,37.424 21.357,37.000 21.357,36.472 L21.357,34.566 C21.357,34.038 20.929,33.613 20.405,33.613 ZM25.167,33.613 C24.642,33.613 24.214,34.038 24.214,34.566 L24.214,36.472 C24.214,37.000 24.642,37.424 25.167,37.424 C25.691,37.424 26.119,37.000 26.119,36.472 L26.119,34.566 C26.119,34.038 25.691,33.613 25.167,33.613 ZM29.928,33.613 C29.404,33.613 28.976,34.038 28.976,34.566 L28.976,36.472 C28.976,37.000 29.404,37.424 29.928,37.424 C30.453,37.424 30.881,37.000 30.881,36.472 L30.881,34.566 C30.881,34.038 30.453,33.613 29.928,33.613 ZM34.690,33.613 C34.166,33.613 33.738,34.038 33.738,34.566 L33.738,36.472 C33.738,37.000 34.166,37.424 34.690,37.424 C35.215,37.424 35.643,37.000 35.643,36.472 L35.643,34.566 C35.643,34.038 35.215,33.613 34.690,33.613 ZM39.452,33.613 C38.928,33.613 38.500,34.038 38.500,34.566 L38.500,36.472 C38.500,37.000 38.928,37.424 39.452,37.424 C39.977,37.424 40.405,37.000 40.405,36.472 L40.405,34.566 C40.405,34.038 39.977,33.613 39.452,33.613 ZM44.214,33.613 C43.690,33.613 43.262,34.038 43.262,34.566 L43.262,36.472 C43.262,37.000 43.690,37.424 44.214,37.424 C44.739,37.424 45.167,37.000 45.167,36.472 L45.167,34.566 C45.167,34.038 44.739,33.613 44.214,33.613 ZM48.976,33.613 C48.452,33.613 48.024,34.038 48.024,34.566 L48.024,36.472 C48.024,37.000 48.452,37.424 48.976,37.424 C49.501,37.424 49.928,37.000 49.928,36.472 L49.928,34.566 C49.928,34.038 49.501,33.613 48.976,33.613 ZM53.738,33.613 C53.213,33.613 52.786,34.038 52.786,34.566 L52.786,36.472 C52.786,37.000 53.213,37.424 53.738,37.424 C54.263,37.424 54.690,37.000 54.690,36.472 L54.690,34.566 C54.690,34.038 54.263,33.613 53.738,33.613 Z"/>
</svg>