<svg 
 xmlns="http://www.w3.org/2000/svg"
 xmlns:xlink="http://www.w3.org/1999/xlink"
 width="39.5px" height="66.5px">
<path fill-rule="evenodd"  stroke="rgb(254, 96, 129)" stroke-width="1px" stroke-linecap="butt" stroke-linejoin="miter" fill="rgb(254, 96, 129)"
 d="M5.901,1.214 C3.001,1.214 0.643,3.591 0.643,6.514 L0.643,59.508 C0.643,62.431 3.001,64.808 5.901,64.808 L33.242,64.808 C36.142,64.808 38.500,62.431 38.500,59.508 L38.500,6.514 C38.500,3.591 36.142,1.214 33.242,1.214 L5.901,1.214 ZM5.901,3.334 L33.242,3.334 C34.980,3.334 36.397,4.763 36.397,6.514 L36.397,7.574 L24.829,7.574 C24.246,7.574 23.778,8.050 23.778,8.634 C23.778,9.217 24.246,9.694 24.829,9.694 L36.397,9.694 L36.397,52.089 L2.746,52.089 L2.746,9.694 L14.313,9.694 C14.897,9.694 15.365,9.217 15.365,8.634 C15.365,8.050 14.897,7.574 14.313,7.574 L2.746,7.574 L2.746,6.514 C2.746,4.763 4.163,3.334 5.901,3.334 ZM18.520,7.574 C17.936,7.574 17.468,8.050 17.468,8.634 C17.468,9.217 17.936,9.694 18.520,9.694 L20.623,9.694 C21.206,9.694 21.675,9.217 21.675,8.634 C21.675,8.050 21.206,7.574 20.623,7.574 L18.520,7.574 ZM5.901,43.610 C5.317,43.610 4.849,44.086 4.849,44.670 L4.849,46.790 C4.849,47.373 5.317,47.850 5.901,47.850 C6.484,47.850 6.952,47.373 6.952,46.790 L6.952,44.670 C6.952,44.086 6.484,43.610 5.901,43.610 ZM11.159,43.610 C10.575,43.610 10.107,44.086 10.107,44.670 L10.107,46.790 C10.107,47.373 10.575,47.850 11.159,47.850 C11.742,47.850 12.210,47.373 12.210,46.790 L12.210,44.670 C12.210,44.086 11.742,43.610 11.159,43.610 ZM16.417,43.610 C15.833,43.610 15.365,44.086 15.365,44.670 L15.365,46.790 C15.365,47.373 15.833,47.850 16.417,47.850 C17.000,47.850 17.468,47.373 17.468,46.790 L17.468,44.670 C17.468,44.086 17.000,43.610 16.417,43.610 ZM22.726,43.610 C22.143,43.610 21.675,44.086 21.675,44.670 L21.675,46.790 C21.675,47.373 22.143,47.850 22.726,47.850 C23.309,47.850 23.778,47.373 23.778,46.790 L23.778,44.670 C23.778,44.086 23.309,43.610 22.726,43.610 ZM27.984,43.610 C27.401,43.610 26.933,44.086 26.933,44.670 L26.933,46.790 C26.933,47.373 27.401,47.850 27.984,47.850 C28.567,47.850 29.036,47.373 29.036,46.790 L29.036,44.670 C29.036,44.086 28.567,43.610 27.984,43.610 ZM33.242,43.610 C32.659,43.610 32.190,44.086 32.190,44.670 L32.190,46.790 C32.190,47.373 32.659,47.850 33.242,47.850 C33.825,47.850 34.294,47.373 34.294,46.790 L34.294,44.670 C34.294,44.086 33.825,43.610 33.242,43.610 ZM2.746,54.209 L36.397,54.209 L36.397,59.508 C36.397,61.260 34.980,62.688 33.242,62.688 L5.901,62.688 C4.163,62.688 2.746,61.260 2.746,59.508 L2.746,54.209 ZM16.417,56.329 C15.833,56.329 15.365,56.805 15.365,57.389 C15.365,57.972 15.833,58.448 16.417,58.448 L22.726,58.448 C23.309,58.448 23.778,57.972 23.778,57.389 C23.778,56.805 23.309,56.329 22.726,56.329 L16.417,56.329 Z"/>
</svg>